# xmcd
#
# Track frame offsets: 
#        150
#        19500
#        41850
#
# Disc length: 911 seconds
#
# Revision: 1
# Processed by: cddbd v1.5.2PL0 Copyright (c) Steve Scherf et al.
# Submitted via: ExactAudioCopy v0.99pb4
#
DISCID=1c038d03
DTITLE=Guns N' Roses - Sweet Child O' Mine
DYEAR=1987
DGENRE=Rock
TTITLE0=Sweet Child O' Mine (The All Dayparts Remix)
TTITLE1=Sweet Child O' Mine (Edit/Remix)
TTITLE2=Sweet Child O' Mine (LP Version)
EXTD=
EXTT0=7 Inch Edit
EXTT1=Album Version
EXTT2=Dub Edit
PLAYORDER=
